<svg class="main-svg" xmlns="http://www.w3.org/2000/svg" xmlns:xlink="http://www.w3.org/1999/xlink" width="700" height="500" viewBox="0 0 700 500"><rect x="0" y="0" width="700" height="500" style="fill: rgb(255, 255, 255); fill-opacity: 1;"/><defs id="defs-fdaa37"><g class="clips"/><g class="gradients"/></defs><g class="bglayer"/><g class="layer-below"><g class="imagelayer"/><g class="shapelayer"/></g><g class="cartesianlayer"/><g class="polarlayer"/><g class="ternarylayer"/><g class="geolayer"/><g class="funnelarealayer"/><g class="pielayer"/><g class="treemaplayer"/><g class="sunburstlayer"/><g class="glimages"/><g class="sankey" transform="translate(80,100)matrix(1 0 0 1 0 0)" style="box-sizing: content-box; position: absolute; left: 0px; shape-rendering: geometricPrecision; pointer-events: auto;"><g class="sankey-links" style="fill: none;"><path class="sankey-link" d="M20,274.2557346557379C140,274.2557346557379 140,11.069642201061303 260,11.069642201061303L260,32.28510684880807C140,32.28510684880807 140,295.4711993034847 20,295.4711993034847Z" style="stroke: rgb(68, 68, 68); stroke-opacity: 1; fill: rgb(0, 0, 0); fill-opacity: 0.2; stroke-width: 0; opacity: 1;"/><path class="sankey-link" d="M20,29.999999999999744C140,29.999999999999744 140,0 260,0L260,11.069642201061303C140,11.069642201061303 140,41.06964220106104 20,41.06964220106104Z" style="stroke: rgb(68, 68, 68); stroke-opacity: 1; fill: rgb(0, 0, 0); fill-opacity: 0.2; stroke-width: 0; opacity: 1;"/><path class="sankey-link" d="M20,59.878960436851365C140,59.878960436851365 140,87.88174512509738 260,87.88174512509738L260,102.10731142162876C140,102.10731142162876 140,74.10452673338273 20,74.10452673338273Z" style="stroke: rgb(68, 68, 68); stroke-opacity: 1; fill: rgb(0, 0, 0); fill-opacity: 0.2; stroke-width: 0; opacity: 1;"/><path class="sankey-link" d="M20,146.34927224753818C140,146.34927224753818 140,66.09442508459858 260,66.09442508459858L260,72.88174512509738C140,72.88174512509738 140,153.13659228803698 20,153.13659228803698Z" style="stroke: rgb(68, 68, 68); stroke-opacity: 1; fill: rgb(0, 0, 0); fill-opacity: 0.2; stroke-width: 0; opacity: 1;"/><path class="sankey-link" d="M20,41.06964220106104C140,41.06964220106104 140,47.285106848808255 260,47.285106848808255L260,66.09442508459858C140,66.09442508459858 140,59.87896043685137 20,59.87896043685137Z" style="stroke: rgb(68, 68, 68); stroke-opacity: 1; fill: rgb(0, 0, 0); fill-opacity: 0.2; stroke-width: 0; opacity: 1;"/><path class="sankey-link" d="M20,215.95101085849922C140,215.95101085849922 140,252.16647550624637 260,252.16647550624637L260,295.47119930348487C140,295.47119930348487 140,259.25573465573774 20,259.25573465573774Z" style="stroke: rgb(68, 68, 68); stroke-opacity: 1; fill: rgb(0, 0, 0); fill-opacity: 0.2; stroke-width: 0; opacity: 1;"/><path class="sankey-link" d="M20,295.4711993034847C140,295.4711993034847 140,310.4711993034848 260,310.4711993034848L260,335.0000000000001C140,335.0000000000001 140,320 20,320Z" style="stroke: rgb(68, 68, 68); stroke-opacity: 1; fill: rgb(0, 0, 0); fill-opacity: 0.2; stroke-width: 0; opacity: 1;"/><path class="sankey-link" d="M20,153.13659228803698C140,153.13659228803698 140,189.35205693578428 260,189.35205693578428L260,237.16647550624646C140,237.16647550624646 140,200.95101085849916 20,200.95101085849916Z" style="stroke: rgb(68, 68, 68); stroke-opacity: 1; fill: rgb(0, 0, 0); fill-opacity: 0.2; stroke-width: 0; opacity: 1;"/><path class="sankey-link" d="M20,74.10452673338273C140,74.10452673338273 140,117.10731142162875 260,117.10731142162875L260,174.35205693578416C140,174.35205693578416 140,131.34927224753815 20,131.34927224753815Z" style="stroke: rgb(68, 68, 68); stroke-opacity: 1; fill: rgb(0, 0, 0); fill-opacity: 0.2; stroke-width: 0; opacity: 1;"/><path class="sankey-link" d="M280,294.8435946107713C400,294.8435946107713 400,319.3723953072864 520,319.3723953072864L520,320C400,320 400,295.47119930348487 280,295.47119930348487Z" style="stroke: rgb(0, 0, 0); stroke-opacity: 0.2; fill: rgb(0, 0, 0); fill-opacity: 0.2; stroke-width: 1; opacity: 1;"/><path class="sankey-link" d="M280,291.0779664544897C400,291.0779664544897 400,251.02208523689822 520,251.02208523689822L520,254.7877133931798C400,254.7877133931798 400,294.84359461077133 280,294.84359461077133Z" style="stroke: rgb(68, 68, 68); stroke-opacity: 1; fill: rgb(0, 0, 0); fill-opacity: 0.2; stroke-width: 0; opacity: 1;"/><path class="sankey-link" d="M280,332.7004249347018C400,332.7004249347018 400,254.78771339317984 520,254.78771339317984L520,257.08728845847816C400,257.08728845847816 400,335.0000000000001 280,335.0000000000001Z" style="stroke: rgb(68, 68, 68); stroke-opacity: 1; fill: rgb(0, 0, 0); fill-opacity: 0.2; stroke-width: 0; opacity: 1;"/><path class="sankey-link" d="M280,230.13494336353145C400,230.13494336353145 400,243.99055309418318 520,243.99055309418318L520,251.02208523689822C400,251.02208523689822 400,237.16647550624648 280,237.16647550624648Z" style="stroke: rgb(68, 68, 68); stroke-opacity: 1; fill: rgb(0, 0, 0); fill-opacity: 0.2; stroke-width: 0; opacity: 1;"/><path class="sankey-link" d="M280,165.76534510866088C400,165.76534510866088 400,235.40384126705987 520,235.40384126705987L520,243.9905530941832C400,243.9905530941832 400,174.35205693578422 280,174.35205693578422Z" style="stroke: rgb(68, 68, 68); stroke-opacity: 1; fill: rgb(0, 0, 0); fill-opacity: 0.2; stroke-width: 0; opacity: 1;"/><path class="sankey-link" d="M280,252.16647550624643C400,252.16647550624643 400,159.26312468759966 520,159.26312468759966L520,198.17461563584294C400,198.17461563584294 400,291.07796645448974 280,291.07796645448974Z" style="stroke: rgb(68, 68, 68); stroke-opacity: 1; fill: rgb(0, 0, 0); fill-opacity: 0.2; stroke-width: 0; opacity: 1;"/><path class="sankey-link" d="M280,310.4711993034848C400,310.4711993034848 400,198.17461563584294 520,198.17461563584294L520,220.40384126705993C400,220.40384126705993 400,332.7004249347018 280,332.7004249347018Z" style="stroke: rgb(68, 68, 68); stroke-opacity: 1; fill: rgb(0, 0, 0); fill-opacity: 0.2; stroke-width: 0; opacity: 1;"/><path class="sankey-link" d="M280,189.35205693578428C400,189.35205693578428 400,118.4802382598525 520,118.4802382598525L520,159.26312468759966C400,159.26312468759966 400,230.13494336353142 280,230.13494336353142Z" style="stroke: rgb(68, 68, 68); stroke-opacity: 1; fill: rgb(0, 0, 0); fill-opacity: 0.2; stroke-width: 0; opacity: 1;"/><path class="sankey-link" d="M280,117.10731142162876C400,117.10731142162876 400,69.82220457282038 520,69.82220457282038L520,118.4802382598525C400,118.4802382598525 400,165.76534510866088 280,165.76534510866088Z" style="stroke: rgb(68, 68, 68); stroke-opacity: 1; fill: rgb(0, 0, 0); fill-opacity: 0.2; stroke-width: 0; opacity: 1;"/></g><g class="sankey-node-set" style="cursor: move;"><g class="sankey-node" transform="translate(260.000, 0.000)" style="opacity: 1;"><rect class="node-rect" width="20" height="32.285106848808255" style="stroke-width: 0.5; stroke: rgb(0, 0, 0); stroke-opacity: 1; fill: rgb(0, 0, 255); fill-opacity: 1;"/><rect class="node-capture" x="-10" y="-7.5" width="40" height="47.285106848808255" style="fill-opacity: 0;"/><g class="node-entered" transform="translate(0 17.142553424404127)"><path class="node-label-guide" id="75d470_0_node_0" d="M24,0L540,0" transform="matrix(1 0 0 1 0 0)"/><text class="node-label" transform="scale(1 1)" style="user-select: none; cursor: default; fill: rgb(42, 63, 95); text-shadow: rgb(255, 255, 255) -1px 1px 1px, rgb(255, 255, 255) 1px 1px 1px, rgb(255, 255, 255) 1px -1px 1px, rgb(255, 255, 255) -1px -1px 1px; font-family: 'Open Sans', verdana, arial, sans-serif; font-size: 10px; fill-opacity: 1;"><textPath class="node-label-text-path" alignment-baseline="middle" xlink:href="#75d470_0_node_0" startOffset="0%" text-anchor="start" style="fill: rgb(0, 0, 0);">composer error</textPath></text></g></g><g class="sankey-node" transform="translate(260.000, 87.882)" style="opacity: 1;"><rect class="node-rect" width="20" height="14.225566296531383" style="stroke-width: 0.5; stroke: rgb(0, 0, 0); stroke-opacity: 1; fill: rgb(0, 0, 255); fill-opacity: 1;"/><rect class="node-capture" x="-10" y="-7.5" width="40" height="29.225566296531383" style="fill-opacity: 0;"/><g class="node-entered" transform="translate(0 8.112783148265692)"><path class="node-label-guide" id="75d470_0_node_2" d="M24,0L540,0" transform="matrix(1 0 0 1 0 0)"/><text class="node-label" transform="scale(1 1)" style="user-select: none; cursor: default; fill: rgb(42, 63, 95); text-shadow: rgb(255, 255, 255) -1px 1px 1px, rgb(255, 255, 255) 1px 1px 1px, rgb(255, 255, 255) 1px -1px 1px, rgb(255, 255, 255) -1px -1px 1px; font-family: 'Open Sans', verdana, arial, sans-serif; font-size: 10px; fill-opacity: 1;"><textPath class="node-label-text-path" alignment-baseline="middle" xlink:href="#75d470_0_node_2" startOffset="0%" text-anchor="start" style="fill: rgb(0, 0, 0);">parse error</textPath></text></g></g><g class="sankey-node" transform="translate(260.000, 47.285)" style="opacity: 1;"><rect class="node-rect" width="20" height="25.596638276289127" style="stroke-width: 0.5; stroke: rgb(0, 0, 0); stroke-opacity: 1; fill: rgb(0, 0, 255); fill-opacity: 1;"/><rect class="node-capture" x="-10" y="-7.5" width="40" height="40.59663827628913" style="fill-opacity: 0;"/><g class="node-entered" transform="translate(0 13.798319138144564)"><path class="node-label-guide" id="75d470_0_node_3" d="M24,0L540,0" transform="matrix(1 0 0 1 0 0)"/><text class="node-label" transform="scale(1 1)" style="user-select: none; cursor: default; fill: rgb(42, 63, 95); text-shadow: rgb(255, 255, 255) -1px 1px 1px, rgb(255, 255, 255) 1px 1px 1px, rgb(255, 255, 255) 1px -1px 1px, rgb(255, 255, 255) -1px -1px 1px; font-family: 'Open Sans', verdana, arial, sans-serif; font-size: 10px; fill-opacity: 1;"><textPath class="node-label-text-path" alignment-baseline="middle" xlink:href="#75d470_0_node_3" startOffset="0%" text-anchor="start" style="fill: rgb(0, 0, 0);">scanner error</textPath></text></g></g><g class="sankey-node" transform="translate(0.000, 215.951)" style="opacity: 1;"><rect class="node-rect" width="20" height="43.304723797238694" style="stroke-width: 0.5; stroke: rgb(0, 0, 0); stroke-opacity: 1; fill: rgb(0, 0, 255); fill-opacity: 1;"/><rect class="node-capture" x="-10" y="-7.5" width="40" height="58.304723797238694" style="fill-opacity: 0;"/><g class="node-entered" transform="translate(0 22.652361898619347)"><path class="node-label-guide" id="75d470_0_node_4" d="M24,0L540,0" transform="matrix(1 0 0 1 0 0)"/><text class="node-label" transform="scale(1 1)" style="user-select: none; cursor: default; fill: rgb(42, 63, 95); text-shadow: rgb(255, 255, 255) -1px 1px 1px, rgb(255, 255, 255) 1px 1px 1px, rgb(255, 255, 255) 1px -1px 1px, rgb(255, 255, 255) -1px -1px 1px; font-family: 'Open Sans', verdana, arial, sans-serif; font-size: 10px; fill-opacity: 1;"><textPath class="node-label-text-path" alignment-baseline="middle" xlink:href="#75d470_0_node_4" startOffset="0%" text-anchor="start" style="fill: rgb(0, 0, 0);">circleci</textPath></text></g></g><g class="sankey-node" transform="translate(0.000, 274.256)" style="opacity: 1;"><rect class="node-rect" width="20" height="45.74426534426209" style="stroke-width: 0.5; stroke: rgb(0, 0, 0); stroke-opacity: 1; fill: rgb(0, 0, 255); fill-opacity: 1;"/><rect class="node-capture" x="-10" y="-7.5" width="40" height="60.74426534426209" style="fill-opacity: 0;"/><g class="node-entered" transform="translate(0 23.872132672131045)"><path class="node-label-guide" id="75d470_0_node_5" d="M24,0L540,0" transform="matrix(1 0 0 1 0 0)"/><text class="node-label" transform="scale(1 1)" style="user-select: none; cursor: default; fill: rgb(42, 63, 95); text-shadow: rgb(255, 255, 255) -1px 1px 1px, rgb(255, 255, 255) 1px 1px 1px, rgb(255, 255, 255) 1px -1px 1px, rgb(255, 255, 255) -1px -1px 1px; font-family: 'Open Sans', verdana, arial, sans-serif; font-size: 10px; fill-opacity: 1;"><textPath class="node-label-text-path" alignment-baseline="middle" xlink:href="#75d470_0_node_5" startOffset="0%" text-anchor="start" style="fill: rgb(0, 0, 0);">drone</textPath></text></g></g><g class="sankey-node" transform="translate(0.000, 146.349)" style="opacity: 1;"><rect class="node-rect" width="20" height="54.601738610961036" style="stroke-width: 0.5; stroke: rgb(0, 0, 0); stroke-opacity: 1; fill: rgb(0, 0, 255); fill-opacity: 1;"/><rect class="node-capture" x="-10" y="-7.5" width="40" height="69.60173861096104" style="fill-opacity: 0;"/><g class="node-entered" transform="translate(0 28.300869305480518)"><path class="node-label-guide" id="75d470_0_node_6" d="M24,0L540,0" transform="matrix(1 0 0 1 0 0)"/><text class="node-label" transform="scale(1 1)" style="user-select: none; cursor: default; fill: rgb(42, 63, 95); text-shadow: rgb(255, 255, 255) -1px 1px 1px, rgb(255, 255, 255) 1px 1px 1px, rgb(255, 255, 255) 1px -1px 1px, rgb(255, 255, 255) -1px -1px 1px; font-family: 'Open Sans', verdana, arial, sans-serif; font-size: 10px; fill-opacity: 1;"><textPath class="node-label-text-path" alignment-baseline="middle" xlink:href="#75d470_0_node_6" startOffset="0%" text-anchor="start" style="fill: rgb(0, 0, 0);">github</textPath></text></g></g><g class="sankey-node" transform="translate(0.000, 30.000)" style="opacity: 1;"><rect class="node-rect" width="20" height="101.34927224753844" style="stroke-width: 0.5; stroke: rgb(0, 0, 0); stroke-opacity: 1; fill: rgb(0, 0, 255); fill-opacity: 1;"/><rect class="node-capture" x="-10" y="-7.5" width="40" height="116.34927224753844" style="fill-opacity: 0;"/><g class="node-entered" transform="translate(0 51.67463612376922)"><path class="node-label-guide" id="75d470_0_node_7" d="M24,0L540,0" transform="matrix(1 0 0 1 0 0)"/><text class="node-label" transform="scale(1 1)" style="user-select: none; cursor: default; fill: rgb(42, 63, 95); text-shadow: rgb(255, 255, 255) -1px 1px 1px, rgb(255, 255, 255) 1px 1px 1px, rgb(255, 255, 255) 1px -1px 1px, rgb(255, 255, 255) -1px -1px 1px; font-family: 'Open Sans', verdana, arial, sans-serif; font-size: 10px; fill-opacity: 1;"><textPath class="node-label-text-path" alignment-baseline="middle" xlink:href="#75d470_0_node_7" startOffset="0%" text-anchor="start" style="fill: rgb(0, 0, 0);">travis</textPath></text></g></g><g class="sankey-node" transform="translate(260.000, 252.166)" style="opacity: 1;"><rect class="node-rect" width="20" height="43.30472379723841" style="stroke-width: 0.5; stroke: rgb(0, 0, 0); stroke-opacity: 1; fill: rgb(0, 0, 255); fill-opacity: 1;"/><rect class="node-capture" x="-10" y="-7.5" width="40" height="58.30472379723841" style="fill-opacity: 0;"/><g class="node-entered" transform="translate(0 22.652361898619205)"><path class="node-label-guide" id="75d470_0_node_8" d="M24,0L540,0" transform="matrix(1 0 0 1 0 0)"/><text class="node-label" transform="scale(1 1)" style="user-select: none; cursor: default; fill: rgb(42, 63, 95); text-shadow: rgb(255, 255, 255) -1px 1px 1px, rgb(255, 255, 255) 1px 1px 1px, rgb(255, 255, 255) 1px -1px 1px, rgb(255, 255, 255) -1px -1px 1px; font-family: 'Open Sans', verdana, arial, sans-serif; font-size: 10px; fill-opacity: 1;"><textPath class="node-label-text-path" alignment-baseline="middle" xlink:href="#75d470_0_node_8" startOffset="0%" text-anchor="start" style="fill: rgb(0, 0, 0);">circleci valid</textPath></text></g></g><g class="sankey-node" transform="translate(260.000, 310.471)" style="opacity: 1;"><rect class="node-rect" width="20" height="24.528800696515304" style="stroke-width: 0.5; stroke: rgb(0, 0, 0); stroke-opacity: 1; fill: rgb(0, 0, 255); fill-opacity: 1;"/><rect class="node-capture" x="-10" y="-7.5" width="40" height="39.528800696515304" style="fill-opacity: 0;"/><g class="node-entered" transform="translate(0 13.264400348257652)"><path class="node-label-guide" id="75d470_0_node_9" d="M24,0L540,0" transform="matrix(1 0 0 1 0 0)"/><text class="node-label" transform="scale(1 1)" style="user-select: none; cursor: default; fill: rgb(42, 63, 95); text-shadow: rgb(255, 255, 255) -1px 1px 1px, rgb(255, 255, 255) 1px 1px 1px, rgb(255, 255, 255) 1px -1px 1px, rgb(255, 255, 255) -1px -1px 1px; font-family: 'Open Sans', verdana, arial, sans-serif; font-size: 10px; fill-opacity: 1;"><textPath class="node-label-text-path" alignment-baseline="middle" xlink:href="#75d470_0_node_9" startOffset="0%" text-anchor="start" style="fill: rgb(0, 0, 0);">drone valid</textPath></text></g></g><g class="sankey-node" transform="translate(260.000, 189.352)" style="opacity: 1;"><rect class="node-rect" width="20" height="47.814418570462124" style="stroke-width: 0.5; stroke: rgb(0, 0, 0); stroke-opacity: 1; fill: rgb(0, 0, 255); fill-opacity: 1;"/><rect class="node-capture" x="-10" y="-7.5" width="40" height="62.814418570462124" style="fill-opacity: 0;"/><g class="node-entered" transform="translate(0 24.907209285231062)"><path class="node-label-guide" id="75d470_0_node_10" d="M24,0L540,0" transform="matrix(1 0 0 1 0 0)"/><text class="node-label" transform="scale(1 1)" style="user-select: none; cursor: default; fill: rgb(42, 63, 95); text-shadow: rgb(255, 255, 255) -1px 1px 1px, rgb(255, 255, 255) 1px 1px 1px, rgb(255, 255, 255) 1px -1px 1px, rgb(255, 255, 255) -1px -1px 1px; font-family: 'Open Sans', verdana, arial, sans-serif; font-size: 10px; fill-opacity: 1;"><textPath class="node-label-text-path" alignment-baseline="middle" xlink:href="#75d470_0_node_10" startOffset="0%" text-anchor="start" style="fill: rgb(0, 0, 0);">github valid</textPath></text></g></g><g class="sankey-node" transform="translate(260.000, 117.107)" style="opacity: 1;"><rect class="node-rect" width="20" height="57.24474551415551" style="stroke-width: 0.5; stroke: rgb(0, 0, 0); stroke-opacity: 1; fill: rgb(0, 0, 255); fill-opacity: 1;"/><rect class="node-capture" x="-10" y="-7.5" width="40" height="72.24474551415551" style="fill-opacity: 0;"/><g class="node-entered" transform="translate(0 29.622372757077756)"><path class="node-label-guide" id="75d470_0_node_11" d="M24,0L540,0" transform="matrix(1 0 0 1 0 0)"/><text class="node-label" transform="scale(1 1)" style="user-select: none; cursor: default; fill: rgb(42, 63, 95); text-shadow: rgb(255, 255, 255) -1px 1px 1px, rgb(255, 255, 255) 1px 1px 1px, rgb(255, 255, 255) 1px -1px 1px, rgb(255, 255, 255) -1px -1px 1px; font-family: 'Open Sans', verdana, arial, sans-serif; font-size: 10px; fill-opacity: 1;"><textPath class="node-label-text-path" alignment-baseline="middle" xlink:href="#75d470_0_node_11" startOffset="0%" text-anchor="start" style="fill: rgb(0, 0, 0);">travis valid</textPath></text></g></g><g class="sankey-node" transform="translate(520.000, 319.372)" style="opacity: 1;"><rect class="node-rect" width="20" height="0.6276046927135894" style="stroke-width: 0.5; stroke: rgb(0, 0, 0); stroke-opacity: 1; fill: rgb(0, 0, 255); fill-opacity: 1;"/><rect class="node-capture" x="-10" y="-7.5" width="40" height="15.62760469271359" style="fill-opacity: 0;"/><g class="node-entered" transform="translate(0 1.3138023463567947)"><path class="node-label-guide" id="75d470_0_node_12" d="M-540,0L-4,0" transform="matrix(1 0 0 1 0 0)"/><text class="node-label" transform="scale(1 1)" style="user-select: none; cursor: default; fill: rgb(42, 63, 95); text-shadow: rgb(255, 255, 255) -1px 1px 1px, rgb(255, 255, 255) 1px 1px 1px, rgb(255, 255, 255) 1px -1px 1px, rgb(255, 255, 255) -1px -1px 1px; font-family: 'Open Sans', verdana, arial, sans-serif; font-size: 10px; fill-opacity: 1;"><textPath class="node-label-text-path" alignment-baseline="middle" xlink:href="#75d470_0_node_12" startOffset="100%" text-anchor="end" style="fill: rgb(0, 0, 0);">comments</textPath></text></g></g><g class="sankey-node" transform="translate(520.000, 235.404)" style="opacity: 1;"><rect class="node-rect" width="20" height="21.68344719141828" style="stroke-width: 0.5; stroke: rgb(0, 0, 0); stroke-opacity: 1; fill: rgb(0, 0, 255); fill-opacity: 1;"/><rect class="node-capture" x="-10" y="-7.5" width="40" height="36.68344719141828" style="fill-opacity: 0;"/><g class="node-entered" transform="translate(0 11.84172359570914)"><path class="node-label-guide" id="75d470_0_node_13" d="M-540,0L-4,0" transform="matrix(1 0 0 1 0 0)"/><text class="node-label" transform="scale(1 1)" style="user-select: none; cursor: default; fill: rgb(42, 63, 95); text-shadow: rgb(255, 255, 255) -1px 1px 1px, rgb(255, 255, 255) 1px 1px 1px, rgb(255, 255, 255) 1px -1px 1px, rgb(255, 255, 255) -1px -1px 1px; font-family: 'Open Sans', verdana, arial, sans-serif; font-size: 10px; fill-opacity: 1;"><textPath class="node-label-text-path" alignment-baseline="middle" xlink:href="#75d470_0_node_13" startOffset="100%" text-anchor="end" style="fill: rgb(0, 0, 0);">blank lines</textPath></text></g></g><g class="sankey-node" transform="translate(520.000, 69.822)" style="opacity: 1;"><rect class="node-rect" width="20" height="150.58163669423948" style="stroke-width: 0.5; stroke: rgb(0, 0, 0); stroke-opacity: 1; fill: rgb(0, 0, 255); fill-opacity: 1;"/><rect class="node-capture" x="-10" y="-7.5" width="40" height="165.58163669423948" style="fill-opacity: 0;"/><g class="node-entered" transform="translate(0 76.29081834711974)"><path class="node-label-guide" id="75d470_0_node_14" d="M-540,0L-4,0" transform="matrix(1 0 0 1 0 0)"/><text class="node-label" transform="scale(1 1)" style="user-select: none; cursor: default; fill: rgb(42, 63, 95); text-shadow: rgb(255, 255, 255) -1px 1px 1px, rgb(255, 255, 255) 1px 1px 1px, rgb(255, 255, 255) 1px -1px 1px, rgb(255, 255, 255) -1px -1px 1px; font-family: 'Open Sans', verdana, arial, sans-serif; font-size: 10px; fill-opacity: 1;"><textPath class="node-label-text-path" alignment-baseline="middle" xlink:href="#75d470_0_node_14" startOffset="100%" text-anchor="end" style="fill: rgb(0, 0, 0);">code</textPath></text></g></g></g></g><defs id="topdefs-fdaa37"><g class="clips"/></defs><g class="layer-above"><g class="imagelayer"/><g class="shapelayer"/></g><g class="infolayer"><g class="g-gtitle"><text class="gtitle" x="35" y="50" text-anchor="start" dy="0em" style="font-family: 'Open Sans', verdana, arial, sans-serif; font-size: 14px; fill: rgb(42, 63, 95); opacity: 1; font-weight: normal; white-space: pre;">Analysis of yaml continous integeration file formats</text></g><g class="first-render"/></g></svg>